#!OML:ASF H:\GeneralSubjects\Female5\Project 1\Capture day 1\Session 1\Female5.ASF
:FULLY-SPECIFIED
:DEGREES
267
root -20.0014 15.8016 1.19131 300.426 -99.7841 -295.878
lowerback 10.2739 0.413673 3.96047
upperback -8.42555 1.49409 3.64117
thorax -15.2269 0.44 1.54514
lowerneck -16.6661 0.504576 0.766945
upperneck 35.5025 -2.77331 5.1786
head 15.3267 -0.786308 1.43709
rclavicle 8.60986e-015 -8.94531e-015
rhumerus -54.8561 20.1313 -71.859
rradius 30.6945
rwrist -14.8872
rhand -24.3589 -19.9523
rfingers 7.12502
rthumb 2.13072 -49.9214
lclavicle 8.60986e-015 -8.94531e-015
lhumerus -50.051 13.4991 68.7544
lradius 31.125
lwrist -10.3783
lhand -28.3912 33.0079
lfingers 7.12502
lthumb -1.76375 62.9804
rfemur -3.15167 9.99953 40.7329
rtibia 5.16729
rfoot -19.3831 -17.1683
rtoes 1.97617
lfemur -26.1595 3.17605 -12.6969
ltibia 56.8378
lfoot 694.56 -0.303261
ltoes -33.3636
268
root -20.2079 15.8152 1.21016 302.734 -100.086 -298.038
lowerback 10.3322 0.541893 4.14195
upperback -8.31336 1.68936 3.51025
thorax -15.1177 0.506345 1.24616
lowerneck -16.7127 0.507393 0.786139
upperneck 35.5564 -2.88955 5.42577
head 15.376 -0.800122 1.51867
rclavicle -1.20513e-015 5.50634e-014
rhumerus -54.1746 20.2166 -71.5895
rradius 31.3739
rwrist -15.1189
rhand -24.5324 -19.8706
rfingers 7.12502
rthumb 1.96316 -49.8414
lclavicle -1.20513e-015 5.50634e-014
lhumerus -50.6536 13.3516 68.5166
lradius 31.9531
lwrist -8.31639
lhand -28.9616 33.3141
lfingers 7.12502
lthumb -2.31464 63.2813
rfemur -2.19673 10.2264 40.8358
rtibia 4.64181
rfoot -19.2582 -17.0518
rtoes 0.773347
lfemur -28.0136 1.06148 -11.7844
ltibia 53.3514
lfoot 693.792 -0.513205
ltoes -34.0748
269
root -20.417 15.8293 1.23201 304.957 -100.401 -300.041
lowerback 10.3121 0.653268 4.29332
upperback -8.2437 1.85135 3.38981
thorax -15.0096 0.560445 0.985864
lowerneck -16.7457 0.502057 0.846786
upperneck 35.6754 -3.03903 5.65132
head 15.4553 -0.827591 1.57887
rclavicle 2.52829e-015 -5.46658e-016
rhumerus -53.5038 20.3141 -71.3595
rradius 32.0163
rwrist -15.2196
rhand -24.7739 -19.658
rfingers 7.12502
rthumb 1.72991 -49.6308
lclavicle 2.52829e-015 -5.46658e-016
lhumerus -51.1259 13.1659 68.3115
lradius 32.3583
lwrist -6.76549
lhand -29.5722 33.4554
lfingers 7.12502
lthumb -2.90429 63.4153
rfemur -1.3304 10.4263 40.9088
rtibia 4.12575
rfoot -18.9562 -17.0926
rtoes -1.59101
lfemur -29.5552 -1.43347 -10.5708
ltibia 49.0673
lfoot 693.544 -0.718503
ltoes -34.6236
270
root -20.6279 15.8431 1.25781 307.185 -100.769 -301.977
lowerback 10.2326 0.752595 4.44083
upperback -8.22061 1.99395 3.29597
thorax -14.9203 0.606346 0.764804
lowerneck -16.7806 0.490849 0.920164
upperneck 35.8572 -3.20809 5.8554
head 15.567 -0.86604 1.62546
rclavicle 6.63133e-015 -3.96327e-015
rhumerus -52.8439 20.4111 -71.1405
rradius 32.644
rwrist -15.2366
rhand -25.0395 -19.3941
rfingers 7.12502
rthumb 1.47339 -49.3688
lclavicle 6.63133e-015 -3.96327e-015
lhumerus -51.4709 13.0234 68.0668
lradius 32.247
lwrist -6.1151
lhand -30.1533 33.4424
lfingers 7.12502
lthumb -3.46546 63.394
rfemur -0.601828 10.615 40.9708
rtibia 3.69493
rfoot -18.5383 -17.1875
rtoes -4.74592
lfemur -30.8382 -4.29935 -8.98262
ltibia 44.1367
lfoot 693.986 -0.798078
ltoes -35.5665
271
root -20.8401 15.8554 1.28825 309.463 -101.23 -303.904
lowerback 10.1238 0.843659 4.60938
upperback -8.24042 2.1297 3.23952
thorax -14.8646 0.647471 0.577967
lowerneck -16.8105 0.480115 0.998566
upperneck 36.0706 -3.37022 6.01698
head 15.6927 -0.90771 1.65493
rclavicle -5.18704e-015 2.69353e-014
rhumerus -52.2108 20.4972 -70.918
rradius 33.2902
rwrist -15.2337
rhand -25.2768 -19.1388
rfingers 7.12502
rthumb 1.24424 -49.1149
lclavicle -5.18704e-015 2.69353e-014
lhumerus -51.6967 13.0072 67.6994
lradius 31.6112
lwrist -6.54798
lhand -30.4852 33.3034
lfingers 7.12502
lthumb -3.78604 63.2495
rfemur -0.0243994 10.8275 41.0433
rtibia 3.42011
rfoot -18.1445 -17.208
rtoes -7.94546
lfemur -31.9357 -7.5258 -6.95256
ltibia 38.8096
lfoot 695.109 -0.728939
ltoes -37.3443
272
root -21.054 15.8649 1.32398 311.842 -101.802 -305.906
lowerback 10.0048 0.928525 4.80408
upperback -8.286 2.26347 3.22101
thorax -14.834 0.685892 0.421194
lowerneck -16.8523 0.479345 1.06274
upperneck 36.2943 -3.50766 6.15586
head 15.826 -0.944104 1.68206
rclavicle 4.13721e-015 5.56597e-014
rhumerus -51.6101 20.5644 -70.6935
rradius 33.987
rwrist -15.288
rhand -25.434 -18.9388
rfingers 7.12502
rthumb 1.09238 -48.9157
lclavicle 4.13721e-015 5.56597e-014
lhumerus -51.8996 13.1871 67.1455
lradius 30.668
lwrist -7.99109
lhand -30.4963 33.1197
lfingers 7.12502
lthumb -3.79677 63.0657
rfemur 0.409194 11.059 41.1242
rtibia 3.35894
rfoot -17.8552 -17.0772
rtoes -10.7968
lfemur -32.9417 -11.0704 -4.47062
ltibia 33.459
lfoot 696.788 -2.49273
ltoes -36.37
273
root -21.2713 15.8703 1.36576 314.342 -102.489 -308.048
lowerback 9.89522 1.00775 5.01988
upperback -8.33458 2.39576 3.23336
thorax -14.8134 0.722718 0.288275
lowerneck -16.9252 0.494616 1.097
upperneck 36.5141 -3.6132 6.29844
head 15.9652 -0.969976 1.72228
rclavicle -8.77137e-015 4.49253e-014
rhumerus -51.0531 20.6281 -70.4896
rradius 34.7493
rwrist -15.4628
rhand -25.5433 -18.8024
rfingers 7.12502
rthumb 0.986813 -48.7798
lclavicle -8.77137e-015 4.49253e-014
lhumerus -52.0123 13.4758 66.468
lradius 29.394
lwrist -10.0093
lhand -30.2967 32.8747
lfingers 7.12502
lthumb -3.60402 62.8239
rfemur 0.750342 11.2883 41.1984
rtibia 3.53023
rfoot -17.6939 -16.7796
rtoes -13.1668
lfemur -33.9312 -14.8007 -1.62844
ltibia 28.5228
lfoot 698.763 -4.52525
ltoes -35.5727
274
root -21.4946 15.8699 1.41421 317.003 -103.285 -310.414
lowerback 9.81094 1.08686 5.24308
upperback -8.37291 2.53144 3.25863
thorax -14.7961 0.761129 0.164954
lowerneck -17.0167 0.524966 1.11244
upperneck 36.7122 -3.68984 6.44722
head 16.0983 -0.985074 1.77379
rclavicle 1.10201e-014 -1.68967e-014
rhumerus -50.5679 20.7077 -70.3383
rradius 35.5713
rwrist -15.7682
rhand -25.6788 -18.7006
rfingers 7.12502
rthumb 0.855991 -48.6786
lclavicle 1.10201e-014 -1.68967e-014
lhumerus -52.1156 13.8663 65.6674
lradius 28.0161
lwrist -12.2109
lhand -29.9676 32.5012
lfingers 7.12502
lthumb -3.28615 62.4556
rfemur 1.06375 11.5064 41.2359
rtibia 3.92941
rfoot -17.6556 -16.326
rtoes -15.0696
lfemur -34.9127 -18.4721 1.34962
ltibia 24.3736
lfoot 700.826 -6.69708
ltoes -34.9647
275
root -21.7257 15.8622 1.4702 319.879 -104.174 -313.087
lowerback 9.75204 1.17045 5.44909
upperback -8.39277 2.67075 3.27396
thorax -14.7717 0.803073 0.0388517
lowerneck -17.1154 0.568473 1.12209
upperneck 36.889 -3.74773 6.60742
head 16.2231 -0.991752 1.83466
rclavicle -3.98812e-015 2.83268e-014
rhumerus -50.1674 20.8032 -70.2599
rradius 36.4173
rwrist -16.1698
rhand -25.8132 -18.6571
rfingers 7.12502
rthumb 0.726159 -48.6356
lclavicle -3.98812e-015 2.83268e-014
lhumerus -52.2602 14.3531 64.7495
lradius 26.7091
lwrist -14.243
lhand -29.5913 32.0556
lfingers 7.12502
lthumb -2.92276 62.0153
rfemur 1.39628 11.697 41.1833
rtibia 4.53517
rfoot -17.6977 -15.726
rtoes -16.7133
lfemur -35.7951 -21.8399 4.12685
ltibia 21.1911
lfoot 702.828 -8.81229
ltoes -34.2625
276
root -21.9659 15.8458 1.53413 322.98 -105.143 -316.092
lowerback 9.71373 1.26365 5.61597
upperback -8.39419 2.8152 3.25976
thorax -14.7364 0.850706 -0.100225
lowerneck -17.2062 0.616905 1.15151
upperneck 37.0468 -3.79771 6.75098
head 16.3361 -0.995399 1.88588
rclavicle 9.14409e-015 -1.2921e-015
rhumerus -49.863 20.8945 -70.2611
rradius 37.2337
rwrist -16.6146
rhand -25.9358 -18.6613
rfingers 7.12502
rthumb 0.607794 -48.6402
lclavicle 9.14409e-015 -1.2921e-015
lhumerus -52.4561 14.9194 63.7243
lradius 25.5407
lwrist -15.9489
lhand -29.2123 31.7128
lfingers 7.12502
lthumb -2.55671 61.6772
rfemur 1.78366 11.8788 40.9986
rtibia 5.3123
rfoot -17.7975 -15.0138
rtoes -18.2373
lfemur -36.3554 -24.4775 6.14102
ltibia 19.083
lfoot 705.027 -10.6674
ltoes -33.1436
277
root -22.2154 15.8202 1.60492 326.293 -106.197 -319.406
lowerback 9.67715 1.37509 5.71448
upperback -8.38099 2.9697 3.20819
thorax -14.6832 0.909166 -0.245445
lowerneck -17.2736 0.654491 1.21233
upperneck 37.1748 -3.85521 6.85173
head 16.427 -1.00477 1.91028
rclavicle 2.89977e-014 -9.44227e-015
rhumerus -49.6628 20.9652 -70.3439
rradius 37.9797
rwrist -17.0739
rhand -26.0351 -18.7036
rfingers 7.12502
rthumb 0.511799 -48.6827
lclavicle 2.89977e-014 -9.44227e-015
lhumerus -52.715 15.5767 62.5898
lradius 24.5839
lwrist -17.2818
lhand -28.7936 31.567
lfingers 7.12502
lthumb -2.15235 61.5358
rfemur 2.21667 12.1148 40.6629
rtibia 6.25201
rfoot -17.9499 -14.2661
rtoes -19.7616
lfemur -36.3756 -26.3335 7.13535
ltibia 17.875
lfoot 707.429 -11.9699
ltoes -31.5959
278
root -22.4732 15.7863 1.68116 329.765 -107.342 -322.958
lowerback 9.62122 1.50601 5.70675
upperback -8.35398 3.12866 3.12473
thorax -14.6018 0.98053 -0.367787
lowerneck -17.317 0.66808 1.26787
upperneck 37.2723 -3.94078 6.94153
head 16.4976 -1.0295 1.92428
rclavicle -2.71838e-014 -8.54774e-015
rhumerus -49.5588 21.0137 -70.4989
rradius 38.6278
rwrist -17.5183
rhand -26.0448 -18.8234
rfingers 7.12502
rthumb 0.5025 -48.8025
lclavicle -2.71838e-014 -8.54774e-015
lhumerus -53.0406 16.3178 61.3921
lradius 23.8575
lwrist -18.3476
lhand -28.4166 31.6576
lfingers 7.12502
lthumb -1.78825 61.6298
rfemur 2.66214 12.4785 40.1682
rtibia 7.35011
rfoot -18.148 -13.564
rtoes -21.2692
lfemur -35.7904 -27.6746 7.20533
ltibia 17.2716
lfoot 709.757 -12.5036
ltoes -30.9963
279
root -22.7365 15.7456 1.76084 333.025 -108.631 -326.376
lowerback 9.58766 1.64647 5.65967
upperback -8.31628 3.29688 3.04711
thorax -14.523 1.06114 -0.463872
lowerneck -17.316 0.645944 1.27268
upperneck 37.3326 -4.06849 7.05263
head 16.5415 -1.07855 1.94711
rclavicle -1.07841e-014 2.84262e-014
rhumerus -49.552 21.0524 -70.7122
rradius 39.158
rwrist -17.8962
rhand -25.9716 -18.9927
rfingers 7.12502
rthumb 0.57314 -48.9717
lclavicle -1.07841e-014 2.84262e-014
lhumerus -53.3044 16.9717 60.32
lradius 23.1926
lwrist -19.035
lhand -28.0839 31.917
lfingers 7.12502
lthumb -1.46691 61.8917
rfemur 3.10153 13.0354 39.6405
rtibia 8.62237
rfoot -18.3766 -13.0053
rtoes -22.7884
lfemur -34.6829 -28.7682 6.73403
ltibia 17.0042
lfoot 711.489 -12.2008
ltoes -30.2698
